/* XPM */
static char * taskbarbg_xpm[] = {
"3 3 2 1",
"  s bottomShadowColor m black c #292929",
". s background m white c #333333",
". .",
" . ",
". ."};
