/* XPM */
static char *_0b678743aea49a68efb67670b72bacaBIGElohEgVrmDWxy[] = {
/* columns rows colors chars-per-pixel */
"16 16 11 1 ",
"  c None",
". c black",
"X c green",
"o c #808000",
"O c yellow",
"+ c navy",
"@ c #008080",
"# c cyan",
"$ c #808080",
"% c #C0C0C0",
"& c white",
/* pixels */
" $$$$$$$$       ",
"$&&&&&&&.       ",
"$&....+%.       ",
"$&.###+%.       ",
"$&.###+%.       ",
"$&+++++$$$$$$$$ ",
"$%%%%%$&&&&&&&. ",
"$.....$&.....%. ",
"$&&&&&$&.#@@$%. ",
"$%X$$$$&.@@@$%. ",
" .....$&.$$$$%. ",
"  $.  $%%%%%%%. ",
"  $.  $.......$.",
"$$Oo.$$&&&&&&&$.",
"..Oo..$%X$$$$$$.",
"  ..   ........ "
};
