/* XPM */
static char *_929f5ba530542919c948d063974eb9f9Y9x25Us7i7OWoBa[] = {
/* columns rows colors chars-per-pixel */
"16 16 12 1 ",
"  c None",
". c black",
"X c red",
"o c green",
"O c #808000",
"+ c yellow",
"@ c navy",
"# c blue",
"$ c #008080",
"% c #808080",
"& c #C0C0C0",
"* c white",
/* pixels */
" %%%%%%%%       ",
"%*****XXXXX     ",
"%*..XX@&.  XX   ",
"%*.X##@&.    X  ",
"%*X###@&.   XXX ",
"%*X@@@@%%%%XX%X ",
"%X&&&&%***XX**.X",
"%X....%*.XX..&.X",
"%X****%*XX$$%&.X",
"%Xo%%%%XX$$$%&.X",
" .X...XX.%%%%&X ",
"  X. XX&&&&&&&X ",
"  %X X%......X%.",
"%%+OXX%****XX*%.",
"..+O..XXXXX%%%%.",
"  ..   ........ "
};
