/* XPM */
static char *_b5713bac7334751f4d8577565048eeez70lKrter4hRxA8j[] = {
/* columns rows colors chars-per-pixel */
"16 16 10 1 ",
"  c None",
". c black",
"X c green",
"o c #808000",
"O c yellow",
"+ c navy",
"@ c cyan",
"# c #808080",
"$ c #C0C0C0",
"% c white",
/* pixels */
" ########       ",
"#%%%%%%%.       ",
"#%....+$.       ",
"#%.@@@+$.       ",
"#%.@@@+$.       ",
"#%+++++######## ",
"#$$$$$#%%%%%%%. ",
"#.....#%.....$. ",
"#%%%%%#%.@@@#$. ",
"#$X####%.@@@#$. ",
" .....#%.####$. ",
"  #.  #$$$$$$$. ",
"  #.  #.......#.",
"##Oo.##%%%%%%%#.",
"..Oo..#$X######.",
"  ..   ........ "
};
