/* XPM */
static char *d96ccd836c064978c271df7588e1cd99IuiEAltql3f351fU[] = {
/* columns rows colors chars-per-pixel */
"16 16 11 1 ",
"  c None",
". c black",
"X c green",
"o c #808000",
"O c yellow",
"+ c navy",
"@ c blue",
"# c cyan",
"$ c #808080",
"% c #C0C0C0",
"& c white",
/* pixels */
" $$$$$$$$       ",
"$&&&&&&&.       ",
"$&....+%.       ",
"$&.#@@+%.       ",
"$&.@@@+%.       ",
"$&+++++$$$$$$$$ ",
"$%%%%%$&&&&&&&. ",
"$.....$&.....%. ",
"$&&&&&$&.###$%. ",
"$%X$$$$&.###$%. ",
" .....$&.$$$$%. ",
"  $.  $%%%%%%%. ",
"  $.  $.......$.",
"$$Oo.$$&&&&&&&$.",
"..Oo..$%X$$$$$$.",
"  ..   ........ "
};
