/* XPM */
static char * maximizeinactive_xpm[] = {
"7 7 2 1",
"  s None",
". s background c #343631",
"......."
".......",
".     .",
".     .",
".     .",
".     .",
"......."};
