/* XPM */
static char * minimiseactiveup_xpm[] = {
"7 7 2 1",
"  s None",
". s background c #e4e3d5",
"       "
"       ",
"       ",
" ..... ",
"       ",
"       ",
"......."};
